<svg xmlns="http://www.w3.org/2000/svg" width="1024" height="1024" viewBox="0 0 1024 1024">
  <defs>
    <linearGradient id="tile" x1="0" y1="0" x2="0" y2="1">
      <stop offset="0" stop-color="#F4924B"/><stop offset="0.42" stop-color="#D6621F"/><stop offset="1" stop-color="#A83E10"/>
    </linearGradient>
    <radialGradient id="glow" cx="0.5" cy="0.42" r="0.62">
      <stop offset="0" stop-color="#FFB871" stop-opacity="0.85"/><stop offset="0.55" stop-color="#FFB871" stop-opacity="0"/>
    </radialGradient>
    <linearGradient id="sheen" x1="0" y1="0" x2="0" y2="1">
      <stop offset="0" stop-color="#ffffff" stop-opacity="0.30"/><stop offset="0.14" stop-color="#ffffff" stop-opacity="0"/>
    </linearGradient>
    <linearGradient id="floor" x1="0" y1="0" x2="0" y2="1">
      <stop offset="0.72" stop-color="#3a1400" stop-opacity="0"/><stop offset="1" stop-color="#3a1400" stop-opacity="0.28"/>
    </linearGradient>
    <linearGradient id="bone" x1="0" y1="0" x2="0" y2="1">
      <stop offset="0" stop-color="#FFFFFF"/><stop offset="1" stop-color="#F1EADE"/>
    </linearGradient>
    <filter id="lift" x="-30%" y="-30%" width="160%" height="160%">
      <feDropShadow dx="0" dy="7" stdDeviation="11" flood-color="#3a1200" flood-opacity="0.40"/>
    </filter>
    <clipPath id="tileClip"><rect x="100" y="100" width="824" height="824" rx="184.988" ry="184.988"/></clipPath>
  </defs>
  <g clip-path="url(#tileClip)">
    <rect x="100" y="100" width="824" height="824" fill="url(#tile)"/>
    <rect x="100" y="100" width="824" height="824" fill="url(#glow)"/>
    <rect x="100" y="100" width="824" height="824" fill="url(#floor)"/>
    <rect x="100" y="100" width="824" height="824" fill="url(#sheen)"/>
    <g transform="translate(512 522) scale(23.999999999999996) translate(-12.5 -13.2)" filter="url(#lift)">
    <path d="M3.2 5.6h15.2c1.8 0 3.3 1 4.4 2.1.4.4.1 1.1-.5 1.1h-4.1v1.1c0 .7.4 1.3 1 1.6l.9.4c.5.2.5 1 0 1.2-2.3.9-4.8 1-7.1.3-1.6-.5-3.3-.5-4.9 0-1.1.3-2.3.5-3.4.5-.6 0-.9-.7-.5-1.1l1.5-1.4c.5-.5.8-1.1.8-1.8v-.8H3.2c-.6 0-1-.4-1-1V6.6c0-.6.4-1 1-1z" fill="url(#bone)"/><path d="M9.4 14.9h5.2l1 2.3H8.4z" fill="url(#bone)"/><path d="M6.5 18.2h11c.6 0 1 .4 1 1v.6c0 .6-.4 1-1 1h-11c-.6 0-1-.4-1-1v-.6c0-.6.4-1 1-1z" fill="url(#bone)"/>
  </g>
  </g>
  <rect x="100.75" y="100.75" width="822.5" height="822.5" rx="184.988" ry="184.988"
        fill="none" stroke="#ffffff" stroke-opacity="0.16" stroke-width="1.5"/>
</svg>